<mxfile host="65bd71144e">
    <diagram name="Page-1" id="5d7acffa-a066-3a61-03fe-96351882024d">
        <mxGraphModel dx="789" dy="455" grid="1" gridSize="10" guides="1" tooltips="1" connect="1" arrows="1" fold="1" page="1" pageScale="1" pageWidth="1100" pageHeight="850" background="#ffffff" math="0" shadow="0">
            <root>
                <mxCell id="0"/>
                <mxCell id="1" parent="0"/>
                <mxCell id="100" style="edgeStyle=orthogonalEdgeStyle;rounded=0;orthogonalLoop=1;jettySize=auto;html=1;entryX=0.5;entryY=0;entryDx=0;entryDy=0;strokeColor=#000000;strokeWidth=3;exitX=0;exitY=0.5;exitDx=0;exitDy=0;" parent="1" source="98" target="99" edge="1">
                    <mxGeometry relative="1" as="geometry"/>
                </mxCell>
                <mxCell id="102" style="edgeStyle=orthogonalEdgeStyle;rounded=0;orthogonalLoop=1;jettySize=auto;html=1;entryX=0.5;entryY=0;entryDx=0;entryDy=0;strokeColor=#000000;strokeWidth=3;fontSize=14;exitX=1;exitY=0.5;exitDx=0;exitDy=0;" parent="1" source="98" target="101" edge="1">
                    <mxGeometry relative="1" as="geometry"/>
                </mxCell>
                <mxCell id="98" value="&lt;font style=&quot;font-size: 14px;&quot;&gt;Запускаемся и чекаем есть ли что в localStorage&lt;/font&gt;" style="rounded=0;whiteSpace=wrap;html=1;" parent="1" vertex="1">
                    <mxGeometry x="560" y="30" width="280" height="60" as="geometry"/>
                </mxCell>
                <mxCell id="105" style="edgeStyle=orthogonalEdgeStyle;rounded=0;orthogonalLoop=1;jettySize=auto;html=1;strokeColor=#000000;strokeWidth=3;fontSize=14;" parent="1" source="99" target="104" edge="1">
                    <mxGeometry relative="1" as="geometry"/>
                </mxCell>
                <mxCell id="147" style="edgeStyle=none;html=1;entryX=0.5;entryY=0;entryDx=0;entryDy=0;strokeColor=#000000;strokeWidth=3;exitX=0.25;exitY=1;exitDx=0;exitDy=0;" parent="1" source="99" target="133" edge="1">
                    <mxGeometry relative="1" as="geometry">
                        <mxPoint x="380" y="150" as="sourcePoint"/>
                    </mxGeometry>
                </mxCell>
                <mxCell id="99" value="&lt;font style=&quot;font-size: 14px;&quot;&gt;Пушим в store&lt;/font&gt;" style="rounded=0;whiteSpace=wrap;html=1;strokeWidth=3;strokeColor=#000000;" parent="1" vertex="1">
                    <mxGeometry x="320" y="100" width="240" height="60" as="geometry"/>
                </mxCell>
                <mxCell id="146" style="edgeStyle=none;html=1;entryX=1;entryY=0.5;entryDx=0;entryDy=0;" parent="1" source="101" target="104" edge="1">
                    <mxGeometry relative="1" as="geometry"/>
                </mxCell>
                <mxCell id="101" value="Делаем запрос с дефолтным городом, на странице пока будет захардкоженная верстка" style="rounded=0;whiteSpace=wrap;html=1;fontSize=14;strokeWidth=1;" parent="1" vertex="1">
                    <mxGeometry x="840" y="100" width="240" height="60" as="geometry"/>
                </mxCell>
                <mxCell id="117" value="&lt;font style=&quot;font-size: 17px;&quot; color=&quot;#000000&quot;&gt;Да&lt;/font&gt;" style="text;html=1;align=center;verticalAlign=middle;whiteSpace=wrap;rounded=0;strokeWidth=1;fontSize=14;" parent="1" vertex="1">
                    <mxGeometry x="470" y="30" width="60" height="20" as="geometry"/>
                </mxCell>
                <mxCell id="130" value="" style="endArrow=none;html=1;fontColor=#FFFFFF;" parent="1" edge="1">
                    <mxGeometry width="50" height="50" relative="1" as="geometry">
                        <mxPoint x="680" y="310" as="sourcePoint"/>
                        <mxPoint x="680.0000000000002" y="310" as="targetPoint"/>
                    </mxGeometry>
                </mxCell>
                <mxCell id="132" value="" style="swimlane;startSize=0;labelBackgroundColor=none;fontColor=#FFFFFF;fillColor=#000000;strokeWidth=3;strokeColor=#000000;" parent="1" vertex="1">
                    <mxGeometry x="300" y="20" width="790" height="380" as="geometry"/>
                </mxCell>
                <mxCell id="133" value="&lt;font style=&quot;font-size: 14px;&quot;&gt;Сохраняем в localStorage&lt;/font&gt;" style="rounded=0;whiteSpace=wrap;html=1;" parent="132" vertex="1">
                    <mxGeometry x="20" y="310" width="150" height="60" as="geometry"/>
                </mxCell>
                <mxCell id="136" value="&lt;font style=&quot;font-size: 17px;&quot; color=&quot;#000000&quot;&gt;Запрос зафейлин&lt;/font&gt;" style="text;html=1;align=center;verticalAlign=middle;whiteSpace=wrap;rounded=0;strokeWidth=1;fontSize=14;" parent="132" vertex="1">
                    <mxGeometry x="560" y="170" width="80" height="20" as="geometry"/>
                </mxCell>
                <mxCell id="137" value="&lt;font style=&quot;font-size: 17px;&quot; color=&quot;#000000&quot;&gt;Запрос удачен&lt;/font&gt;" style="text;html=1;align=center;verticalAlign=middle;whiteSpace=wrap;rounded=0;strokeWidth=1;fontSize=14;" parent="132" vertex="1">
                    <mxGeometry x="200" y="170" width="30" height="20" as="geometry"/>
                </mxCell>
                <mxCell id="143" value="&lt;font style=&quot;font-size: 17px;&quot; color=&quot;#000000&quot;&gt;Нет&lt;/font&gt;" style="text;html=1;align=center;verticalAlign=middle;whiteSpace=wrap;rounded=0;strokeWidth=1;fontSize=14;" parent="132" vertex="1">
                    <mxGeometry x="560" y="10" width="60" height="20" as="geometry"/>
                </mxCell>
                <mxCell id="104" value="Рендерим" style="rounded=0;whiteSpace=wrap;html=1;strokeWidth=1;fontSize=14;" parent="132" vertex="1">
                    <mxGeometry x="300" y="80" width="210" height="60" as="geometry"/>
                </mxCell>
                <mxCell id="109" value="alert('Эпик фейл');" style="rounded=0;whiteSpace=wrap;html=1;strokeWidth=1;fontSize=14;" parent="132" vertex="1">
                    <mxGeometry x="670" y="170" width="110" height="60" as="geometry"/>
                </mxCell>
                <mxCell id="103" value="Делаем запрос на сервак и обновляем все данные погоды" style="rounded=0;whiteSpace=wrap;html=1;strokeWidth=1;fontSize=14;" parent="132" vertex="1">
                    <mxGeometry x="265" y="170" width="280" height="60" as="geometry"/>
                </mxCell>
                <mxCell id="111" style="edgeStyle=orthogonalEdgeStyle;rounded=0;orthogonalLoop=1;jettySize=auto;html=1;entryX=0;entryY=0.5;entryDx=0;entryDy=0;strokeColor=#000000;strokeWidth=3;fontSize=14;exitX=1;exitY=0.5;exitDx=0;exitDy=0;" parent="132" source="103" target="109" edge="1">
                    <mxGeometry relative="1" as="geometry"/>
                </mxCell>
                <mxCell id="107" style="edgeStyle=orthogonalEdgeStyle;rounded=0;orthogonalLoop=1;jettySize=auto;html=1;entryX=0.5;entryY=0;entryDx=0;entryDy=0;strokeColor=#000000;strokeWidth=3;fontSize=14;" parent="132" source="104" target="103" edge="1">
                    <mxGeometry relative="1" as="geometry"/>
                </mxCell>
                <mxCell id="115" value="Пользователь дабавил/удалил в/из избранного" style="rounded=0;whiteSpace=wrap;html=1;strokeWidth=1;fontSize=14;" parent="132" vertex="1">
                    <mxGeometry x="270" y="250" width="270" height="60" as="geometry"/>
                </mxCell>
                <mxCell id="145" value="" style="edgeStyle=none;html=1;strokeWidth=3;strokeColor=#000000;" parent="1" source="101" target="104" edge="1">
                    <mxGeometry relative="1" as="geometry"/>
                </mxCell>
                <mxCell id="110" style="edgeStyle=orthogonalEdgeStyle;rounded=0;orthogonalLoop=1;jettySize=auto;html=1;entryX=0.5;entryY=1;entryDx=0;entryDy=0;strokeColor=#000000;strokeWidth=3;fontSize=14;exitX=0;exitY=0.5;exitDx=0;exitDy=0;" parent="1" source="103" target="99" edge="1">
                    <mxGeometry relative="1" as="geometry">
                        <mxPoint x="500" y="300" as="targetPoint"/>
                    </mxGeometry>
                </mxCell>
                <mxCell id="142" style="edgeStyle=none;html=1;strokeColor=#000000;strokeWidth=3;fontColor=#000000;exitX=0;exitY=0.5;exitDx=0;exitDy=0;entryX=0.5;entryY=1;entryDx=0;entryDy=0;" parent="1" source="115" target="99" edge="1">
                    <mxGeometry relative="1" as="geometry">
                        <mxPoint x="640" y="270" as="sourcePoint"/>
                        <mxPoint x="440" y="170" as="targetPoint"/>
                        <Array as="points">
                            <mxPoint x="440" y="300"/>
                        </Array>
                    </mxGeometry>
                </mxCell>
            </root>
        </mxGraphModel>
    </diagram>
</mxfile>